<svg width="200" height="200" xmlns="http://www.w3.org/2000/svg" ref="svg_canvas" preserveAspectRatio="none" version="1.1">
 <g>
  <title>Gene</title>
  <g id="shape_ue" ref="shape_ue" key="shape_ue" transform="translate(300 120) scale(1 1)" display="inline">
   <g display="inline" id="svg_1">
    <rect stroke-dasharray="2,2" fill="rgba(0,0,0,0)" width="200" height="200" x="-297" y="-118" id="svg_2"/>
    <svg stroke-dasharray="2,2" version="1.1" id="svg_7" x="-297" y="-118" width="200" height="200" viewBox="0 0 150 150" xml:space="preserve" class="style-removed" preserveAspectRatio="none" data-parent="shape_ue" xmlns="http://www.w3.org/2000/svg" xmlns:xlink="http://www.w3.org/1999/xlink">
     <path stroke-dasharray="2,2" d="m141.8,72.4l0,-16.1l-43.4,0l0,-0.1l-27.6,0c-1.8,0 -3.2,1.4 -3.2,3.2c0,1.8 1.4,3.2 3.2,3.2l1.2,0c1.8,0 3.2,1.4 3.2,3.2s-1.4,3.2 -3.2,3.2l-10,0c-1.8,0 -3.2,1.4 -3.2,3.2l0,0c0,1.8 1.4,3.2 3.2,3.2l15.6,0c1.8,0 3.2,1.4 3.2,3.2s-1.5,3.4 -3.3,3.4l-6.7,0c-1.8,0 -3.2,1.4 -3.2,3.2c0,1.7 1.4,3.1 3,3.2l13,0l0,0l22.4,0c-6.1,12.8 -19.2,21.1 -33.6,21.1c-20.5,0 -37.2,-16.7 -37.2,-37.2c0,-20.5 16.7,-37.2 37.2,-37.2c7.7,0 14.8,2.1 20.3,6c2.3,1.6 4.8,3.5 7.5,6.4l1.7,1.8l23.4,-22l-1.7,-1.8c-4.7,-5 -9,-8.3 -12.3,-10.6c-11,-7.8 -24.5,-11.9 -38.9,-11.9c-38.1,0.1 -69.2,31.2 -69.2,69.4c0,38.2 31.1,69.3 69.3,69.3s69.3,-31.1 69.3,-69.3z" fill="#eecfa6" id="svg_11"/>
     <path stroke-dasharray="2,2" d="m60.6,62.7c1.8,0 3.2,-1.4 3.2,-3.2l0,0c0,-1.8 -1.4,-3.2 -3.2,-3.2l-0.5,0c-1.8,0 -3.2,1.4 -3.2,3.2l0,0c0,1.8 1.4,3.2 3.2,3.2l0.5,0z" fill="#14cfa6" id="svg_10"/>
     <path stroke-dasharray="2,2" d="m54,85.2c0,1.8 1.4,3.2 3.2,3.2l3.4,0c1.8,0 3.2,-1.4 3.2,-3.2c0,-1.8 -1.4,-3.2 -3.2,-3.2l-3.4,0c-1.8,0 -3.2,1.4 -3.2,3.2z" fill="#337ab7" id="svg_9"/>
     <path stroke-dasharray="2,2" d="m45,72.2c0,1.8 1.4,3.2 3.2,3.2l3.4,0c1.8,0 3.2,-1.4 3.2,-3.2c0,-1.8 -1.4,-3.2 -3.2,-3.2l-3.4,0c-1.8,0 -3.2,1.4 -3.2,3.2z" fill="#ff8458" id="svg_8"/>
    </svg>
   </g>
  </g>
 </g>

</svg>